<svg xmlns="http://www.w3.org/2000/svg" width="40" height="40" viewBox="0 0 40 40" fill="none">
<rect x="1" y="5" width="38" height="24" rx="2" fill="#CCCED1"/>
<path d="M3.71432 9C3.71432 8.44772 4.16204 8 4.71432 8H13.5715C14.1238 8 14.5715 8.44772 14.5715 9V12C14.5715 12.5523 14.1238 13 13.5715 13H4.71432C4.16204 13 3.71432 12.5523 3.71432 12V9Z" fill="white"/>
<path opacity="0.5" d="M9.14282 33C9.14282 32.4477 9.59054 32 10.1428 32H29.8571C30.4094 32 30.8571 32.4477 30.8571 33V34C30.8571 34.5523 30.4094 35 29.8571 35H10.1428C9.59054 35 9.14282 34.5523 9.14282 34V33Z" fill="#245EFF"/>
<path d="M1 21H39V27C39 28.1046 38.1046 29 37 29H3C1.89543 29 1 28.1046 1 27V21Z" fill="#245EFF"/>
<rect x="6.4285" y="24" width="27.1429" height="5" fill="#1D4BCC"/>
</svg>