<svg xmlns="http://www.w3.org/2000/svg" width="40" height="40" viewBox="0 0 40 40" fill="none">
<path d="M27 9C27 8.44772 27.4477 8 28 8H31C31.5523 8 32 8.44772 32 9V17H27V9Z" fill="#9A9C9E"/>
<path d="M6 19L18.8375 9.83034C19.5329 9.33363 20.4671 9.33363 21.1625 9.83034L34 19V36C34 37.1046 33.1046 38 32 38H8C6.89543 38 6 37.1046 6 36V19Z" fill="#CCCED1"/>
<path d="M19.3803 7.48919C19.7437 7.20237 20.2563 7.20237 20.6196 7.48919L36.7391 20.2151C37.4836 20.8029 37.068 22 36.1195 22H34.0311C33.8032 22 33.5821 21.9221 33.4045 21.7793L20.6289 11.5057C20.2619 11.2106 19.7388 11.2116 19.3729 11.5079L6.69374 21.7771C6.51568 21.9213 6.29349 22 6.06436 22H3.8805C2.93198 22 2.51638 20.8029 3.26085 20.2151L19.3803 7.48919Z" fill="#245EFF"/>
<path d="M15 27C15 25.8954 15.8954 25 17 25H23C24.1046 25 25 25.8954 25 27V38H15V27Z" fill="#9A9C9E"/>
</svg>