<svg xmlns="http://www.w3.org/2000/svg" width="40" height="40" viewBox="0 0 40 40" fill="none">
<path d="M17.9119 23.5827C16.9871 22.9787 16.7119 21.7296 17.2973 20.7929L26.8358 5.52805C27.4211 4.59132 28.6453 4.32163 29.5701 4.92567L32.0818 6.56624C35.7809 8.98241 36.8816 13.9786 34.5402 17.7255L31.3607 22.8138C29.0194 26.5607 24.1227 27.6395 20.4236 25.2233L17.9119 23.5827Z" fill="#1D4BCC"/>
<path d="M5 20.5771C5 19.4726 5.89543 18.5771 7 18.5771H35C36.1046 18.5771 37 19.4726 37 20.5771V22.5771C37 26.9954 33.4183 30.5771 29 30.5771H13C8.58172 30.5771 5 26.9954 5 22.5771V20.5771Z" fill="#245EFF"/>
<path fill-rule="evenodd" clip-rule="evenodd" d="M0.41493 14.0165C1.22475 13.159 3.39077 11.5771 6.13887 11.5771C8.69289 11.5771 10.8745 13.5546 12.4985 15.4419C13.6645 16.7969 14.7741 18.3985 15.6791 19.7049C16.0598 20.2543 16.4042 20.7515 16.7015 21.1562C17.1819 21.8101 17.0706 22.7525 16.453 23.2611C15.8354 23.7697 14.9454 23.6519 14.465 22.998C14.0781 22.4713 13.6817 21.8984 13.2695 21.3026C12.4037 20.0511 11.4681 18.6988 10.4042 17.4623C8.80132 15.5997 7.3626 14.5771 6.13887 14.5771C4.35365 14.5771 2.86782 15.6619 2.41839 16.1378C1.86515 16.7236 0.968171 16.7236 0.41493 16.1378C-0.13831 15.552 -0.13831 14.6023 0.41493 14.0165Z" fill="#CCCED1"/>
<circle cx="13" cy="32.5771" r="4" fill="#9A9C9E"/>
<circle cx="29" cy="32.5771" r="4" fill="#9A9C9E"/>
</svg>